<?xml version="1.0" encoding="utf-8"?>
<!-- Generator: Adobe Illustrator 22.1.0, SVG Export Plug-In . SVG Version: 6.00 Build 0)  -->
<svg version="1.1" id="Capa_1" xmlns="http://www.w3.org/2000/svg" xmlns:xlink="http://www.w3.org/1999/xlink" x="0px" y="0px"
	 viewBox="0 0 188.1 188.1" style="enable-background:new 0 0 188.1 188.1;" xml:space="preserve">
<style type="text/css">
	.st0{fill:#C9F0F4;}
	.st1{clip-path:url(#SVGID_3_);fill:#CEB2BD;}
	.st2{display:none;}
	.st3{display:inline;}
	.st4{display:inline;clip-path:url(#SVGID_5_);fill:#168EF7;}
	.st5{clip-path:url(#SVGID_7_);fill:#DAB9C5;}
	.st6{clip-path:url(#SVGID_9_);}
	.st7{fill:#5EB1CC;}
</style>
<g>
	<g>
		<g>
			<circle id="SVGID_1_" class="st0" cx="94.1" cy="94.1" r="94.1"/>
		</g>
		<g>
			<defs>
				<circle id="SVGID_2_" cx="94.1" cy="94.1" r="94.1"/>
			</defs>
			<clipPath id="SVGID_3_">
				<use xlink:href="#SVGID_2_"  style="overflow:visible;"/>
			</clipPath>
			<path class="st1" d="M126.7,153.9L126.7,153.9c-2.1-1.5-4.2-2.9-6.4-4.2c-0.1,0-0.1-0.1-0.2-0.1c-10.6-5.9-17.9-17.2-17.9-30.2
				l-16.1-0.1c0,13.1-7.3,24.5-18,30.3c0,0,0,0,0,0c-2.3,1.2-4.4,2.6-6.5,4.2c-13.4,9.9-22,25.8-22,43.8h109.1
				C148.6,179.7,140,163.9,126.7,153.9z"/>
		</g>
		<g class="st2">
			<defs>
				<circle id="SVGID_4_" cx="94.1" cy="94.1" r="94.1"/>
			</defs>
			<clipPath id="SVGID_5_" class="st3">
				<use xlink:href="#SVGID_4_"  style="overflow:visible;"/>
			</clipPath>
			<path class="st4" d="M148.6,197.6H39.5c0-17.9,8.6-33.8,22-43.8c2.1-1.5,4.2-2.9,6.5-4.2c0,0,0,0,0,0c1.8-1,3.4-2.1,5-3.3
				c5.3,5.5,12.8,8.9,21.1,8.9c8.2,0,15.7-3.4,21-8.9c1.5,1.3,3.2,2.4,4.9,3.3c0.1,0,0.1,0.1,0.2,0.1c2.3,1.2,4.4,2.6,6.4,4.2h0
				C140,163.9,148.6,179.7,148.6,197.6z"/>
		</g>
		<g>
			<defs>
				<circle id="SVGID_6_" cx="94.1" cy="94.1" r="94.1"/>
			</defs>
			<clipPath id="SVGID_7_">
				<use xlink:href="#SVGID_6_"  style="overflow:visible;"/>
			</clipPath>
			<path class="st5" d="M52.2,38.1v42.8c0,29,25.4,52.5,41.9,52.5c16.4,0,41.9-23.5,41.9-52.5V38.1H52.2z"/>
		</g>
		<g>
			<defs>
				<circle id="SVGID_8_" cx="94.1" cy="94.1" r="94.1"/>
			</defs>
			<clipPath id="SVGID_9_">
				<use xlink:href="#SVGID_8_"  style="overflow:visible;"/>
			</clipPath>
			<path class="st6" d="M129.1,30.2c-9.1-11.4-23-18.7-38.5-18.7c-27.5,0-49.8,23-49.8,51.3c0,15,6.3,28.6,16.3,37.9
				c-2.6-6.5-4-13.7-4-21.4c0-12.3,3.7-23.6,10-32.2c6.6,2.9,17.3,4,29,2.4c11.6-1.6,21.5-5.4,27.1-10c10.2,9,16.8,23.5,16.8,39.9
				c0,8.4-1.7,16.3-4.8,23.2c9.8-4.1,17.1-18.6,17.1-35.8C148.2,48.2,140,33,129.1,30.2z"/>
		</g>
	</g>
</g>
<path class="st7" d="M44.8,174.2c53.4,31.4,98.5,0,98.5,0s-6.9-15.8-23.3-24.5c-22.1,7.3-26,8.3-26,8.3s-10-3.5-26-8.3
	C51.4,158.8,44.8,174.2,44.8,174.2z"/>
</svg>
