<?xml version="1.0" encoding="iso-8859-1"?>
<!-- Generator: Adobe Illustrator 22.0.0, SVG Export Plug-In . SVG Version: 6.00 Build 0)  -->
<svg version="1.1" id="Layer_1" xmlns="http://www.w3.org/2000/svg" xmlns:xlink="http://www.w3.org/1999/xlink" x="0px" y="0px"
	 width="158px" height="144px" viewBox="0 0 158 144" style="enable-background:new 0 0 158 144;" xml:space="preserve">
<g>
	<circle style="fill:#34325C;" cx="79.033" cy="50.175" r="37.825"/>
	<rect x="61.634" y="30.927" style="fill:#F4A51D;" width="18.912" height="4.707"/>
	<rect x="61.634" y="39.164" style="fill:#EE385B;" width="11.011" height="4.707"/>
	<rect x="85.337" y="56.48" style="fill:#B29CC9;" width="11.011" height="4.707"/>
	<rect x="77.352" y="64.717" style="fill:#32A0BE;" width="18.912" height="4.707"/>
	<polygon style="fill:#32A0BE;" points="90.045,31.011 96.349,31.011 67.938,69.424 61.634,69.424 	"/>
</g>
<g>
	<path style="fill:#231F20;" d="M21.458,122.317c0.118,0.589-0.353,1.295-0.942,1.413c-0.118,0-0.235,0-0.471,0h-9.888
		c-0.589,0.118-1.295-0.353-1.412-0.942c0-0.118,0-0.235,0-0.471c0-0.353,0.118-0.706,0.235-0.942l8.24-10.829H9.804
		c-0.706,0.118-1.412-0.471-1.53-1.177c-0.118-0.706,0.471-1.413,1.177-1.53h10.123c0.589-0.118,1.295,0.353,1.412,0.942
		c0,0.118,0,0.235,0,0.471c0,0.353-0.118,0.706-0.235,0.942l-8.24,10.829h7.416c0.589-0.118,1.295,0.235,1.412,0.942
		C21.576,122.081,21.576,122.199,21.458,122.317z"/>
	<path style="fill:#231F20;" d="M38.526,116.431c-0.235,0.235-0.589,0.353-0.942,0.353H26.52c0.235,1.295,0.824,2.472,1.883,3.296
		c1.53,1.177,3.649,1.53,5.532,0.942c0.589-0.118,1.059-0.471,1.53-0.824c0.235-0.235,0.589-0.353,0.942-0.353
		c0.706,0,1.295,0.589,1.412,1.295c0,0.353-0.118,0.706-0.471,0.824c-0.706,0.589-1.53,0.942-2.472,1.295
		c-0.942,0.353-1.883,0.471-2.825,0.471c-1.53,0-2.943-0.353-4.238-1.059c-1.177-0.706-2.237-1.648-2.943-2.825
		c-0.706-1.295-1.059-2.707-1.059-4.12s0.353-2.943,0.942-4.12c0.589-1.177,1.648-2.237,2.825-2.825
		c1.177-0.706,2.59-1.059,4.002-1.059c1.295,0,2.707,0.353,3.885,0.942c1.059,0.706,1.883,1.648,2.472,2.825
		c0.589,1.295,0.942,2.707,0.824,4.002C38.879,115.842,38.762,116.195,38.526,116.431z M28.285,111.369
		c-0.942,0.824-1.53,1.883-1.648,3.061h9.652c-0.118-1.177-0.589-2.237-1.412-3.061s-2.001-1.177-3.06-1.177
		C30.404,110.192,29.227,110.545,28.285,111.369z"/>
	<path style="fill:#231F20;" d="M52.887,108.191c0.471,0.235,0.824,0.706,0.824,1.177c0,0.118,0,0.235,0,0.235
		c-0.118,0.589-0.589,0.942-1.177,0.942c-0.118,0-0.235,0-0.471,0c-0.589-0.118-1.295-0.235-1.883-0.235
		c-1.177,0-2.354,0.235-3.414,0.942c-0.824,0.589-1.295,1.53-1.295,2.59v8.358c0,0.353-0.118,0.824-0.353,1.059
		c-0.353,0.235-0.706,0.353-1.059,0.353s-0.824-0.118-1.059-0.353c-0.235-0.235-0.353-0.706-0.353-1.059v-12.948
		c0-0.353,0.118-0.824,0.353-1.059c0.353-0.235,0.706-0.353,1.059-0.353c0.706-0.118,1.295,0.353,1.412,1.059
		c0,0.118,0,0.235,0,0.353v0.589c0.589-0.706,1.295-1.177,2.119-1.648c0.824-0.353,1.766-0.589,2.707-0.589
		S52.063,107.838,52.887,108.191z"/>
	<path style="fill:#231F20;" d="M58.655,122.787c-1.177-0.706-2.237-1.648-2.825-2.943c-1.295-2.59-1.295-5.768,0-8.358
		c0.706-1.177,1.648-2.237,2.825-2.825c1.295-0.706,2.707-1.059,4.12-1.059s2.825,0.353,4.12,1.059
		c1.177,0.706,2.237,1.766,2.825,2.943c1.295,2.59,1.295,5.65,0,8.24c-0.706,1.177-1.648,2.237-2.825,2.825
		C64.423,124.082,61.244,124.2,58.655,122.787z M65.482,120.551c0.824-0.471,1.412-1.177,1.883-1.883
		c0.471-0.824,0.706-1.883,0.589-2.825c0-0.942-0.235-2.001-0.589-2.825c-0.471-0.824-1.059-1.53-1.883-1.883
		c-1.648-0.942-3.649-0.942-5.297,0c-0.824,0.471-1.412,1.177-1.883,1.883c-0.471,0.824-0.706,1.883-0.706,2.825
		s0.235,1.883,0.706,2.825c0.471,0.824,1.059,1.413,1.883,1.883C61.833,121.493,63.834,121.493,65.482,120.551L65.482,120.551z"/>
	<path style="fill:#231F20;" d="M86.435,108.78c1.177,0.706,2.237,1.648,2.825,2.825c0.706,1.295,1.059,2.707,1.059,4.12v13.184
		c0,0.353-0.118,0.824-0.353,1.059c-0.589,0.589-1.53,0.589-2.119,0c-0.353-0.235-0.471-0.706-0.471-1.059v-7.769
		c-1.412,1.648-3.414,2.707-5.65,2.59c-1.295,0-2.707-0.353-3.767-1.059c-1.177-0.706-2.001-1.648-2.707-2.825
		c-0.706-1.295-0.942-2.707-0.942-4.12s0.353-2.825,1.059-4.12c0.706-1.177,1.648-2.237,2.943-2.943s2.59-1.059,4.12-1.059
		C83.845,107.72,85.258,108.073,86.435,108.78z M85.022,120.551c0.824-0.471,1.412-1.177,1.883-2.001
		c0.471-0.824,0.706-1.766,0.706-2.825c0-0.942-0.235-1.883-0.706-2.825c-0.353-0.824-1.059-1.53-1.766-2.001
		c-2.472-1.413-5.532-0.589-6.945,1.766l-0.118,0.118c-0.471,0.824-0.706,1.766-0.706,2.825c0,0.942,0.235,1.883,0.706,2.825
		c0.471,0.824,1.059,1.53,1.883,2.001C81.491,121.493,83.492,121.493,85.022,120.551L85.022,120.551z"/>
	<path style="fill:#231F20;" d="M98.677,122.787c-1.177-0.706-2.237-1.648-2.825-2.943c-1.295-2.59-1.295-5.768,0-8.358
		c0.706-1.177,1.648-2.237,2.825-2.825c2.59-1.413,5.65-1.413,8.24,0c1.177,0.706,2.237,1.766,2.943,2.943
		c1.295,2.59,1.295,5.768,0,8.358c-0.706,1.177-1.648,2.237-2.825,2.825C104.327,124.2,101.266,124.2,98.677,122.787z
		 M105.504,120.551c0.824-0.471,1.412-1.177,1.766-1.883c0.471-0.824,0.706-1.883,0.706-2.825s-0.235-2.001-0.706-2.825
		c-0.353-0.824-1.059-1.53-1.766-1.883c-0.824-0.471-1.766-0.706-2.707-0.706s-1.883,0.235-2.59,0.706
		c-0.824,0.471-1.412,1.177-1.883,1.883c-0.471,0.824-0.706,1.883-0.706,2.825s0.235,1.883,0.706,2.825
		c0.471,0.824,1.059,1.413,1.883,1.883c0.824,0.471,1.766,0.706,2.59,0.706C103.738,121.257,104.68,121.022,105.504,120.551
		L105.504,120.551z"/>
	<path style="fill:#231F20;" d="M129.988,101.482c0.235,0.235,0.471,0.706,0.353,1.059v13.184c0,1.413-0.353,2.825-1.059,4.12
		c-1.412,2.472-4.12,4.002-6.945,4.002c-1.412,0-2.825-0.353-4.12-1.059c-1.177-0.706-2.237-1.648-2.825-2.943
		c-0.706-1.295-1.059-2.707-1.059-4.12s0.353-2.825,0.942-4.12c0.589-1.177,1.53-2.237,2.707-2.943
		c2.119-1.295,4.708-1.413,6.945-0.353c0.942,0.471,1.883,1.059,2.472,1.883v-7.887c0-0.353,0.118-0.824,0.353-1.059
		C128.458,101.011,129.399,101.011,129.988,101.482z M125.044,120.551c0.824-0.471,1.412-1.177,1.883-2.001
		c0.942-1.766,0.942-3.767,0-5.532c-0.471-0.824-1.059-1.413-1.883-1.883c-0.824-0.471-1.766-0.706-2.59-0.706
		c-0.942,0-1.883,0.235-2.59,0.706c-0.824,0.471-1.412,1.177-1.883,1.883c-0.942,1.766-0.942,3.767,0,5.532
		c0.471,0.824,1.059,1.53,1.883,2.001c0.824,0.471,1.648,0.706,2.59,0.706C123.279,121.257,124.22,121.022,125.044,120.551z"/>
	<path style="fill:#231F20;" d="M149.41,116.431c-0.235,0.235-0.589,0.353-0.942,0.353h-11.065c0.235,1.295,0.824,2.472,1.883,3.296
		c1.53,1.177,3.649,1.53,5.532,0.942c0.589-0.118,1.059-0.471,1.53-0.824c0.235-0.235,0.589-0.353,0.942-0.353
		c0.706,0,1.295,0.589,1.412,1.295c0,0.353-0.235,0.706-0.471,0.824c-0.706,0.589-1.53,0.942-2.472,1.295
		c-0.942,0.353-1.883,0.471-2.825,0.471c-1.53,0-2.943-0.353-4.238-1.059c-1.177-0.706-2.237-1.648-2.943-2.825
		c-0.706-1.295-1.059-2.707-1.059-4.12s0.353-2.943,0.942-4.12c0.589-1.177,1.648-2.237,2.825-2.825
		c1.177-0.706,2.59-1.059,4.002-1.059c1.295,0,2.707,0.353,3.885,0.942c1.059,0.706,2.001,1.648,2.472,2.825
		c0.589,1.295,0.942,2.707,0.942,4.002C149.881,115.842,149.764,116.195,149.41,116.431z M139.17,111.369
		c-0.942,0.824-1.53,1.883-1.648,3.061h9.652c-0.118-1.177-0.589-2.237-1.412-3.061c-0.824-0.824-2.001-1.177-3.06-1.177
		C141.288,110.192,140.111,110.545,139.17,111.369L139.17,111.369z"/>
</g>
</svg>
