<?xml version="1.0" encoding="utf-8"?>
<!-- Generator: Adobe Illustrator 22.0.0, SVG Export Plug-In . SVG Version: 6.00 Build 0)  -->
<svg version="1.1" id="Layer_1" xmlns="http://www.w3.org/2000/svg" xmlns:xlink="http://www.w3.org/1999/xlink" x="0px" y="0px"
	 width="314px" height="278.7px" viewBox="0 0 314 278.7" style="enable-background:new 0 0 314 278.7;" xml:space="preserve">
<style type="text/css">
	.st0{display:none;}
	.st1{display:inline;fill:#A6CCF4;}
	.st2{opacity:0.55;fill:#ABDEE7;enable-background:new    ;}
	.st3{fill:#40AACF;}
	.st4{fill:#338AA3;}
	.st5{fill:#FFFFFF;}
	.st6{fill:#E2AAA6;}
	.st7{fill:#D7E8F7;}
	.st8{fill:#CADFEF;}
	.st9{fill:#E1B6C4;}
	.st10{fill:#1E1A1E;}
	.st11{fill:#B0CDE2;}
	.st12{fill:#3B9CB7;}
	.st13{fill:#FFBDA1;}
	.st14{clip-path:url(#SVGID_3_);fill:#072042;}
	.st15{opacity:0.55;fill:#BDF0F5;enable-background:new    ;}
	.st16{fill:#FFD474;}
	.st17{opacity:0.55;fill:#F8C487;enable-background:new    ;}
	.st18{fill:#BDF0F5;}
	.st19{fill:#A9DCE6;}
	.st20{fill:#2FB2D1;}
	.st21{opacity:0.7;fill:#2FB2D1;enable-background:new    ;}
	.st22{fill:none;stroke:#2FB2D1;stroke-width:1.8219;stroke-miterlimit:10;}
	.st23{fill:url(#SVGID_4_);}
	.st24{fill:#44C8E0;}
	.st25{opacity:0.6;fill:url(#SVGID_5_);enable-background:new    ;}
	.st26{opacity:0.4;}
	.st27{opacity:0.5;}
	.st28{fill:#FF63BE;}
	.st29{fill:none;stroke:#FFFFFF;stroke-width:0.5559;stroke-miterlimit:10;}
	.st30{fill:#E2B6C4;}
	.st31{fill:#FDBB8C;}
	.st32{fill:#FDDB7D;}
	.st33{fill:#535C63;}
	.st34{fill:#4D9596;}
	.st35{opacity:0.36;fill:#378497;enable-background:new    ;}
	.st36{fill:#B4DCE5;}
	.st37{fill:#ABDEE7;}
	.st38{fill:#C8F0F5;}
	.st39{fill:#55C9EA;}
	.st40{fill:none;stroke:#55C9EA;stroke-width:1.8219;stroke-miterlimit:10;}
	.st41{fill:url(#SVGID_6_);}
	.st42{fill:#DBB9C5;}
	.st43{fill:#DCB9C5;}
	.st44{fill:#F4BE94;}
	.st45{fill:#F8C487;}
	.st46{fill:#4C8AA1;}
	.st47{fill:#5AB1CE;}
	.st48{fill:#555C62;}
</style>
<g id="BACKGROUND" class="st0">
	<rect x="-92.6" y="-116.8" class="st1" width="500" height="500"/>
</g>
<path class="st2" d="M92.7,248.5c-38.3,0-69.4-31.1-69.4-69.4V95.3c0-78.1,111.5-92.2,130.9-16.5c0.1,0.3,0.1,0.6,0.2,0.9
	c7.4,28.2,33.1,24.6,70.4,15.2s81.5-5.9,55.7,69.2c-0.3,0.7-0.5,1.5-0.7,2.2c-16,49.3-62.4,82.3-114.2,82.3H92.7V248.5z"/>
<path class="st3" d="M97.6,157.6v-4.9h140.3v4.9c0,5.1-4.2,9.3-9.3,9.3H106.9C101.8,166.9,97.6,162.7,97.6,157.6z"/>
<rect x="153.1" y="166.9" class="st4" width="28.8" height="12.4"/>
<path class="st3" d="M97.6,152.9V79.5c0-4.7,3.8-8.6,8.6-8.6h123.1c4.7,0,8.6,3.8,8.6,8.6v73.4H97.6L97.6,152.9z"/>
<rect x="102.4" y="76.8" class="st5" width="129.7" height="71"/>
<path class="st5" d="M167.7,156c1.8,0,3.2,1.4,3.2,3.2c0,1.7-1.4,3.2-3.2,3.2s-3.2-1.4-3.2-3.2S166,156,167.7,156z"/>
<path class="st3" d="M140.8,183.4c0-2.3,1.9-4.1,4.2-4.2h45.6c2.3,0,4.2,1.9,4.2,4.2l0,0H140.8L140.8,183.4z"/>
<rect x="173.3" y="89.4" class="st2" width="45" height="45"/>
<path class="st6" d="M185.3,102c3.8,0,6.9,3.1,6.9,6.9s-3.1,6.9-6.9,6.9s-6.9-3.1-6.9-6.9C178.4,105.1,181.5,102,185.3,102z"/>
<polygon class="st7" points="194.2,134.4 173.3,134.4 173.3,122.3 186.1,110.7 194.2,120.3 "/>
<polygon class="st3" points="218.3,134.4 180.4,134.4 209.2,106.2 218.3,120.2 "/>
<path class="st3" d="M118.9,100.3L118.9,100.3c0-0.8,0.5-1.3,1.2-1.3h45.5c0.7,0,1.2,0.5,1.2,1.2v0.1c0,0.7-0.5,1.2-1.2,1.2h-45.5
	C119.4,101.5,118.9,100.9,118.9,100.3z"/>
<path class="st3" d="M131.9,113.1L131.9,113.1c0-0.8,0.5-1.3,1.2-1.3h32.5c0.7,0,1.2,0.5,1.2,1.2v0.1c0,0.7-0.5,1.2-1.2,1.2h-32.5
	C132.4,114.3,131.9,113.8,131.9,113.1z"/>
<path class="st3" d="M118.9,119.5L118.9,119.5c0-0.7,0.6-1.2,1.2-1.2h45.4c0.7,0,1.2,0.5,1.2,1.2v0.1c0,0.7-0.5,1.2-1.2,1.2h-45.4
	C119.5,120.8,118.9,120.2,118.9,119.5z"/>
<path class="st3" d="M152.5,126L152.5,126c0-0.8,0.5-1.3,1.2-1.3h11.9c0.7,0,1.2,0.5,1.2,1.2v0.1c0,0.7-0.5,1.2-1.2,1.2h-11.9
	C153,127.2,152.5,126.7,152.5,126z"/>
<path class="st3" d="M140.7,106.7L140.7,106.7c0-0.8,0.5-1.3,1.2-1.3h23.7c0.7,0,1.2,0.5,1.2,1.2v0.1c0,0.7-0.5,1.2-1.2,1.2h-23.7
	C141.2,107.9,140.7,107.4,140.7,106.7z"/>
<path class="st8" d="M42.9,191.1c0-0.3,0.2-0.5,0.5-0.5l77.2,0.1c0.3,0,0.5,0.2,0.5,0.5s-0.2,0.5-0.5,0.5l-77.2-0.1
	C43.1,191.6,42.9,191.4,42.9,191.1z"/>
<path class="st8" d="M202,191.1c0-0.3,0.2-0.5,0.5-0.5l57.5,0.1c0.3,0,0.5,0.2,0.5,0.5s-0.2,0.5-0.5,0.5l-57.5-0.1
	C202.2,191.6,202,191.4,202,191.1z"/>
<g>
	<path class="st5" d="M116.6,51.5H82c0-0.2,1.2-5.9,7.7-4c0,0,0.7-9,9.9-9c5.1,0,7.5,3.3,8.6,6.1c1.3-0.4,3.7-0.8,6,1.3
		C114.2,45.9,116.6,47.8,116.6,51.5z"/>
</g>
<path class="st9" d="M127.9,184.6l-1.9-6.9l3.5-0.1c0,0,1.9,6.6,2,6.9L127.9,184.6z"/>
<path class="st10" d="M121.7,186.4c-0.1-1.7,1.2-3.1,2.9-3.1l6.8-0.3l0.1,3L121.7,186.4L121.7,186.4z"/>
<path class="st9" d="M171.5,182.8l-6.8-2.2l1.8-3c0,0,6.6,2.1,6.8,2.2L171.5,182.8z"/>
<path class="st10" d="M174.9,180l-2.3,7.3H168c0.4-1.3,2.4-1.7,2.4-1.7v-2.1l1.9-4.1L174.9,180z"/>
<path class="st9" d="M117.3,141.7l-3.4-0.6c-0.4-0.1-0.8-0.5-0.7-0.9l0.4-7.4c0.1-0.4,0.4-0.6,0.7-0.6h0.2c0.3,0.1,0.4,0.3,0.4,0.7
	l0.4,3.5l2.6,2.6L117.3,141.7z"/>
<path class="st11" d="M127.7,146.1l-11.2-3.9l0.5-4.7l11.9,3.7l11.1-0.5l0.2,5l-11.6,0.5h-0.1C128.2,146.2,127.9,146.2,127.7,146.1z
	"/>
<path class="st12" d="M149.9,155.6l5.8,18.1l-2.1-2l14.5,5.5l-1.7,5.2l-15-4c-0.8-0.2-1.5-0.7-1.9-1.5l-0.3-0.5l-8.5-16.7
	L149.9,155.6z"/>
<path class="st12" d="M145,162l-22.1,1.2l3.3-4.5l4.7,19.4l-5.9,0.4l-5.6-17.9c-0.1-0.2-0.1-0.4-0.1-0.7c-0.2-1.9,1.1-3.6,3-3.8h0.4
	l22-2.5L145,162z"/>
<path class="st7" d="M137.1,152.2l4.3,6.8l10.1-1l-4.8-10.5l-0.9-2c-0.8-2.2-2.2-4.2-4-5.6l-1-0.8l-1.1,0.8
	C135.6,142.6,134.5,148,137.1,152.2z"/>
<path class="st9" d="M117.9,148.5l-3.4-0.6c-0.4-0.1-0.8-0.5-0.7-0.9v-7.4c0.1-0.4,0.4-0.6,0.7-0.6h0.2c0.3,0.1,0.4,0.3,0.4,0.7
	l0.8,3.5l2.6,2.6L117.9,148.5z"/>
<polygon class="st9" points="136.8,137.6 138.6,142.4 141.2,139.9 139.9,137.5 "/>
<path class="st13" d="M132.7,134.2l0.7,0.4l1-0.3l-0.7-1.4l-1.1,0.5C132.4,133.5,132.4,134,132.7,134.2z"/>
<g>
	<g>
		<path id="SVGID_1_" class="st9" d="M136.6,129.7c2.5-0.8,5.1,0.6,5.9,3.1s-0.6,5.1-3.1,5.9s-5.1-0.6-5.9-3.1
			C132.7,133.1,134.1,130.5,136.6,129.7z"/>
	</g>
	<g>
		<g>
			<defs>
				<path id="SVGID_2_" d="M136.6,129.7c2.5-0.8,5.1,0.6,5.9,3.1s-0.6,5.1-3.1,5.9s-5.1-0.6-5.9-3.1
					C132.7,133.1,134.1,130.5,136.6,129.7z"/>
			</defs>
			<clipPath id="SVGID_3_">
				<use xlink:href="#SVGID_2_"  style="overflow:visible;"/>
			</clipPath>
			<polygon class="st14" points="143.9,131.1 142.3,139.2 136.1,128.4 			"/>
		</g>
	</g>
</g>
<path class="st5" d="M139.7,132.7c0.7-0.2,1.4,0.2,1.6,0.9c0.2,0.7-0.2,1.4-0.9,1.6c-0.7,0.2-1.4-0.2-1.6-0.9
	C138.6,133.7,139,133,139.7,132.7z"/>
<path class="st7" d="M129.6,153l-13.1-3.9l0.8-4.9l12.2,3.7l12.1-6.6l2.4,4.4l-12.9,7c-0.4,0.2-0.8,0.3-1.2,0.3
	C129.9,153,129.7,153,129.6,153z"/>
<path class="st3" d="M220.4,131.2v55.2c0,2.4,2,4.4,4.4,4.4h25.7c2.4,0,4.4-2,4.4-4.4v-55.2c0-2.4-2-4.4-4.4-4.4h-25.7
	C222.4,126.8,220.4,128.8,220.4,131.2z"/>
<path class="st5" d="M235.8,185.6c0-1.5,1.2-2.7,2.7-2.7s2.7,1.2,2.7,2.7s-1.2,2.7-2.7,2.7S235.8,187.1,235.8,185.6z"/>
<rect x="223.3" y="132.4" class="st5" width="29" height="48.1"/>
<rect x="228" y="137.1" class="st15" width="19.6" height="19.6"/>
<circle class="st16" cx="233.3" cy="145.6" r="3"/>
<polygon class="st7" points="237.1,156.7 228,156.7 228,151.4 233.6,146.4 237.1,150.6 "/>
<polygon class="st4" points="247.7,156.7 231.1,156.7 243.7,144.4 247.7,150.5 "/>
<path class="st7" d="M237,161.8v-0.1c0-0.7,0.5-1.2,1.2-1.2h8c0.7,0,1.2,0.5,1.2,1.2v0.1c0,0.7-0.5,1.2-1.2,1.2h-8
	C237.6,163,237,162.5,237,161.8z"/>
<path class="st7" d="M237,173.1V173c0-0.7,0.5-1.2,1.2-1.2h8c0.7,0,1.2,0.5,1.2,1.2v0.1c0,0.7-0.5,1.2-1.2,1.2h-8
	C237.6,174.3,237,173.8,237,173.1z"/>
<path class="st7" d="M227.4,167.5v-0.1c0-0.7,0.5-1.2,1.2-1.2h17.6c0.6,0,1.2,0.5,1.2,1.2v0.1c0,0.7-0.5,1.2-1.2,1.2h-17.6
	C228,168.7,227.4,168.1,227.4,167.5z"/>
<path class="st3" d="M56.7,115.3v69.9c0,3.1,2.5,5.5,5.5,5.5h46c3.1,0,5.5-2.5,5.5-5.5v-69.9c0-3.1-2.5-5.5-5.5-5.5h-46
	C59.1,109.8,56.7,112.2,56.7,115.3z"/>
<path class="st5" d="M82.7,184.2c0-1.9,1.5-3.4,3.4-3.4s3.4,1.5,3.4,3.4s-1.5,3.4-3.4,3.4S82.7,186.1,82.7,184.2z"/>
<rect x="60.4" y="116.9" class="st5" width="50.2" height="61"/>
<rect x="68.3" y="123.6" class="st15" width="34.7" height="34.7"/>
<path class="st6" d="M77.6,133.3c2.9,0,5.3,2.4,5.3,5.3c0,2.9-2.4,5.3-5.3,5.3s-5.3-2.4-5.3-5.3C72.2,135.7,74.6,133.3,77.6,133.3z"
	/>
<polygon class="st17" points="84.4,158.3 68.3,158.3 68.3,149 78.2,140 84.4,147.5 "/>
<polygon class="st4" points="103,158.3 73.7,158.3 96,136.6 103,147.3 "/>
<path class="st7" d="M92.6,164.1V164c0-0.7,0.5-1.2,1.2-1.2h8c0.7,0,1.2,0.5,1.2,1.2v0.1c0,0.7-0.5,1.2-1.2,1.2h-8
	C93.2,165.2,92.6,164.7,92.6,164.1z"/>
<path class="st7" d="M67.7,169.7v-0.1c0-0.7,0.5-1.2,1.2-1.2h33c0.7,0,1.2,0.5,1.2,1.2v0.1c0,0.7-0.5,1.2-1.2,1.2h-33
	C68.2,170.9,67.7,170.4,67.7,169.7z"/>
<g>
	<path class="st18" d="M-238,74.7l1.9-5.8l-3.8-2.6c0-1.1,0-2.2-0.2-3.3l3.5-3.2l-2.7-5.4l-4.6,0.9c-0.8-0.8-1.5-1.7-2.5-2.4
		l0.3-4.9l-5.8-1.9l-2.7,4.1c-1.1,0-2.3,0.1-3.4,0.3l-3.2-3.4l-5.4,2.8l0.9,4.6c-0.8,0.8-1.6,1.6-2.3,2.5l-4.8-0.2l-1.9,5.8l4,2.7
		c0,1.1,0.1,2.3,0.3,3.3l-3.4,3.2l2.7,5.4l4.6-0.9c0.8,0.8,1.7,1.3,2.6,2l-0.1,4.5l5.8,1.9l2.6-3.7c1.1,0,2.2,0.1,3.3-0.2l3.2,3.5
		l5.4-2.7l-0.9-4.6c0.8-0.8,1.5-1.6,2.1-2.5L-238,74.7z M-257.6,72.9c-4-1.3-6.1-5.6-4.8-9.5s5.6-6.1,9.5-4.8s6.1,5.6,4.8,9.5
		C-249.4,72.1-253.6,74.2-257.6,72.9z"/>
	<path class="st18" d="M-263.3,28l3-3l-1.5-2.8c0.4-0.7,0.7-1.4,0.9-2.1l3.1-0.9V15l-3.1-0.9c-0.2-0.7-0.4-1.6-0.8-2.2L-260,9l-3-3
		l-3,1.7c-0.7-0.4-1.4-0.6-2.2-0.8l-0.9-3.1h-4.2l-0.9,3.1c-0.7,0.2-1.5,0.5-2.2,0.8l-2.9-1.6l-3,3l1.6,2.9
		c-0.4,0.7-0.7,1.4-0.9,2.2l-3.1,0.9v4.2l3.1,0.9c0.2,0.7,0.6,1.4,1,2l-1.5,2.7l3,3l2.8-1.5c0.7,0.4,1.3,0.7,2.1,0.9l0.9,3.2h4.2
		l0.9-3.1c0.7-0.2,1.4-0.5,2.1-0.9L-263.3,28z M-274.9,20.8c-2-2-2-5.4,0-7.4s5.4-2,7.4,0s2,5.4,0,7.4
		C-269.6,22.9-272.9,22.8-274.9,20.8z"/>
	<path class="st19" d="M-461,169.2l16.5-15.6C-444.5,153.6-465.9,156.6-461,169.2z"/>
	<path class="st20" d="M-461,169.2l16.5-15.6C-444.5,153.6-448.6,174.7-461,169.2z"/>
	<polygon class="st20" points="-461,172.7 -463.9,172.7 -463.9,160.1 -465.3,155.9 -462.5,154.9 -461,159.2 	"/>
	<path class="st19" d="M-443.7,168.3c-5.9-7.6-16-3.2-18.4,2.7v0.1V171c-2.4-6-12.5-10.3-18.4-2.7c-8.1,10.5-2.6,26.1,8.5,33.4
		c0.8,0.5,1.6,1,2.3,1.4c3.4,0.9,6.1-0.3,7.7-2.2c1.6,2,4.3,3.1,7.7,2.2c0.7-0.4,1.5-0.9,2.3-1.4
		C-441.2,194.3-435.6,178.7-443.7,168.3z"/>
	<polygon class="st18" points="-374.1,131.5 -333.4,0.3 -292.1,131.5 -287,131.5 -331.1,-11.1 -335.8,-11.1 -379.3,131.5 	"/>
	<polygon class="st21" points="-337.8,60 -357.5,60 -355.8,54.6 -337.8,54.6 	"/>
	<polygon class="st21" points="-331.4,38.2 -350.8,38.2 -348.9,31.8 -331.4,31.8 	"/>
	<polygon class="st21" points="-324.1,15.3 -343.8,15.3 -342.2,9.9 -324.1,9.9 	"/>
	<polygon class="st18" points="-358.4,131.5 -317.7,0.3 -276.4,131.5 -271.2,131.5 -315.3,-11.1 -320,-11.1 -363.6,131.5 	"/>
	<path class="st21" d="M-402.3,116l21.5-40.4C-380.8,75.7-416,99.3-402.3,116z"/>
	<path class="st18" d="M-402.3,116l21.5-40.4C-380.8,75.7-380.8,118.1-402.3,116z"/>
	<path class="st21" d="M-402.6,136.3l23.3-22.4C-379.2,113.9-408.1,122.1-402.6,136.3z"/>
	<path class="st18" d="M-402.6,136.3l23.4-22.4C-379.2,113.9-388.6,142.5-402.6,136.3z"/>
	<path class="st21" d="M-402.9,153.3l13.2-12.6C-389.7,140.7-406,145.3-402.9,153.3z"/>
	<path class="st18" d="M-402.9,153.3l13.2-12.6C-389.7,140.7-395,156.8-402.9,153.3z"/>
	<line class="st22" x1="-402.2" y1="165.3" x2="-402.2" y2="73.9"/>
	<path class="st21" d="M-402.6,80.1V32.3C-402.6,32.3-423.6,71.4-402.6,80.1z"/>
	<path class="st18" d="M-402.6,80.1V32.3C-402.6,32.3-381.6,71.4-402.6,80.1z"/>
	<path class="st21" d="M-402.3,106l-25.2-38.1C-427.5,67.9-423.5,110.1-402.3,106z"/>
	<path class="st18" d="M-402.3,106l-25.2-38.1C-427.5,67.9-390.2,88.1-402.3,106z"/>
	<path class="st21" d="M-402.2,129.7l-29.7-24.5C-431.9,105.2-418.3,138.2-402.2,129.7z"/>
	<path class="st18" d="M-402.2,129.7l-29.7-24.5C-431.9,105.2-396.9,112.3-402.2,129.7z"/>
	<path class="st21" d="M-401.9,145.4l-15.7-12.9C-417.6,132.4-410.4,149.8-401.9,145.4z"/>
	<path class="st18" d="M-401.9,145.4l-15.7-12.9C-417.6,132.4-399.1,136.2-401.9,145.4z"/>
	
		<linearGradient id="SVGID_4_" gradientUnits="userSpaceOnUse" x1="-426.525" y1="70.825" x2="-373.025" y2="124.325" gradientTransform="matrix(1 0 0 1 0 89)">
		<stop  offset="0.4121" style="stop-color:#E8ECEF"/>
		<stop  offset="1" style="stop-color:#C6D1DA"/>
	</linearGradient>
	<polygon class="st23" points="-374.9,215.2 -424.7,215.2 -427.1,160.4 -372.4,160.4 	"/>
	<polygon class="st21" points="-425.6,194.4 -424.7,215.2 -374.9,215.2 -373.9,194.4 	"/>
	<path class="st19" d="M-436.5,201.1h24.6c5.3,0,9.5,4.4,9.5,9.7s-4.3,9.7-9.5,9.7h-24.6V201.1z"/>
	<path class="st21" d="M-403.9,216.1c-1.7,2.7-4.6,4.5-8,4.5h-24.6v-4.5H-403.9z"/>
	<path class="st5" d="M-511.6,203.1h81.2c4.2,0,7.6,3.5,7.6,7.7c0,4.3-3.4,7.7-7.6,7.7h-81.2L-511.6,203.1L-511.6,203.1z"/>
	<rect x="-511.6" y="203.1" class="st18" width="13.8" height="15.5"/>
	<path class="st19" d="M-513.1,216.6h82.6c3.1,0,5.6-2.6,5.6-5.8s-2.5-5.8-5.6-5.8h-82.6v-4h82.6c5.3,0,9.5,4.4,9.5,9.7
		s-4.3,9.7-9.5,9.7h-82.6V216.6z"/>
	<path class="st21" d="M-434.3,212.1h-77.3v-2.3h77.3c0.5,0,0.9,0.4,0.9,0.9v0.6C-433.5,211.7-433.9,212.1-434.3,212.1z"/>
	<path class="st21" d="M-412.8,211.5c0-5.9-4.8-10-10.3-10h6.5c5.5,0,10.3,4.1,10.3,10s-4.3,9.2-9.8,9.2h-6.5
		C-417.1,220.6-412.8,217.4-412.8,211.5z"/>
	<polygon class="st21" points="-459.2,214.8 -455.2,212.3 -451.2,214.8 -451.2,209.7 -459.2,209.7 	"/>
	<g>
		<path d="M-383.1,229.9V84.5c0-9.1,7.4-16.4,16.4-16.4h224c9.1,0,16.4,7.4,16.4,16.4v145.4H-383.1z"/>
		<path class="st4" d="M-142.6,69.3c8.3,0,15.1,6.8,15.1,15.1v144.1h-254.3v-144c0-8.3,6.8-15.1,15.1-15.1L-142.6,69.3 M-142.6,66.7
			h-224c-9.8,0-17.8,8-17.8,17.8v146.7h259.6V84.5C-124.9,74.6-132.8,66.7-142.6,66.7L-142.6,66.7z"/>
	</g>
	<path class="st18" d="M-134.8,238.9h-239.7c-9.8,0-18.8-5.1-23.8-13.5l0,0h287.4l0,0C-116,233.8-125,238.9-134.8,238.9z"/>
	<rect x="-290.1" y="225.4" class="st24" width="70.9" height="4.3"/>
	<g>
		
			<linearGradient id="SVGID_5_" gradientUnits="userSpaceOnUse" x1="-254.65" y1="123.776" x2="-254.65" y2="103.276" gradientTransform="matrix(1 0 0 1 0 89)">
			<stop  offset="0.1159" style="stop-color:#2A333A;stop-opacity:0.9355"/>
			<stop  offset="0.2863" style="stop-color:#2D363D;stop-opacity:0.7364"/>
			<stop  offset="0.4055" style="stop-color:#363F45;stop-opacity:0.5971"/>
			<stop  offset="0.509" style="stop-color:#454E54;stop-opacity:0.4762"/>
			<stop  offset="0.6037" style="stop-color:#5B6369;stop-opacity:0.3656"/>
			<stop  offset="0.6922" style="stop-color:#787F84;stop-opacity:0.2621"/>
			<stop  offset="0.7763" style="stop-color:#9BA1A5;stop-opacity:0.1639"/>
			<stop  offset="0.8553" style="stop-color:#C3C8CC;stop-opacity:7.160000e-02"/>
			<stop  offset="0.9165" style="stop-color:#E8ECEF;stop-opacity:0"/>
		</linearGradient>
		<rect x="-370.1" y="192.3" class="st25" width="230.9" height="20.5"/>
		<g>
			<g class="st26">
				<g>
					<rect x="-365.8" y="199.4" class="st5" width="222.4" height="1.9"/>
				</g>
			</g>
		</g>
		<g class="st27">
			<g>
				<rect x="-340" y="199.4" class="st5" width="85.4" height="1.9"/>
			</g>
		</g>
		<rect x="-365.8" y="199.4" class="st28" width="27.7" height="1.9"/>
		<polygon class="st5" points="-364.8,209.2 -364.8,204.8 -361.3,207 		"/>
		<g>
			<polygon class="st5" points="-353,208.9 -353,205.1 -350,207 			"/>
			<rect x="-350.4" y="205.1" class="st5" width="0.8" height="3.8"/>
		</g>
		<g>
			<rect x="-341.8" y="205.9" class="st5" width="1.7" height="2"/>
			<polygon class="st5" points="-338.7,209.3 -340.4,207.9 -340.4,206.1 -338.7,204.7 			"/>
			<path class="st5" d="M-338.1,205.6v2.7c0.5-0.2,0.9-0.7,0.9-1.4C-337.2,206.4-337.6,205.8-338.1,205.6z"/>
		</g>
		
			<text transform="matrix(1 0 0 1 -330.3768 208.8382)" style="opacity:0.7;fill:#FFFFFF;enable-background:new    ; font-family:'Roboto-Light'; font-size:4.4133px;">10:03 / 20:31</text>
		<rect x="-163" y="205" class="st29" width="5.4" height="4.1"/>
		<g>
			<polyline class="st29" points="-152.2,206.5 -152.2,205 -150.7,205 			"/>
			<polyline class="st29" points="-152.2,207.5 -152.2,209 -150.7,209 			"/>
			<polyline class="st29" points="-148.2,206.5 -148.2,205 -149.7,205 			"/>
			<polyline class="st29" points="-148.2,207.5 -148.2,209 -149.7,209 			"/>
		</g>
	</g>
	<path d="M-214.3,63l-0.5,3.8h-11.6l0,0c0.4-1.4,1.7-2.3,3.2-2.1l1.4,0.2c1,0,3.9-1,3.6-1.9H-214.3z"/>
	<path class="st4" d="M-189.9,64.9l-17.3-12.7l-7.1,13.4l-5.3-3l8.2-17.9c1.1-2.5,4.1-3.4,6.4-2.2l19.2,10.4L-189.9,64.9z"/>
	<path d="M-185.9,112.6l2.8,3.3l-11.5,2.9l0,0c0-1.5,1.1-2.7,2.6-2.9l1.4-0.1c1-0.2,1.4-1.4,0.8-2.2l0,0L-185.9,112.6z"/>
	<path class="st20" d="M-170.1,58.4v1.5c0,4.6-3.7,8.3-8.3,8.3l0,0l-12.7,16l6.4,27.9l-6.5,1.8l-8.7-30.3c-0.4-1.4-0.3-3,0.4-4.3
		l9.9-20.9H-170.1L-170.1,58.4z"/>
	<path class="st18" d="M-189.9,25.6h13.3c3.5,0,6.7,1.9,8.4,4.9L-163,42c0.8,1.8,1.2,3.7,1.2,5.7v17.2h-6.2V47.2l-2.1-5.9v18.9
		h-20.4l-1.5-24.1l-9.6,8.9c-2.1,2.1-5.6,1.6-7-1.1l-8.4-16.3l4.2-2.6l7.4,12.1l8.5-8.6C-195,26.7-192.5,25.6-189.9,25.6z"/>
	<path class="st9" d="M-193,10.5c-0.1-3.7,3.8-8.2,9.1-8.2c3.2,0,6.2,1.8,7.9,4.5l0.2,0.3c1.4,2.2,1.7,4.9,1,7.4l-2.7,6.6l-0.2,4.4
		l-0.1,0.1c-2.1,2-5.5,1.9-7.5-0.1l0,0l0.2-4.8h-3.5c-2.5,0-4.5-2.1-4.5-4.5l0,0v-2.1L-193,10.5z"/>
	<path d="M-179.1,12.2l-2.4-5.2l-3.4,1.1c-2.6,0.8-5.4,0.6-7.8-0.7l0,0c0-3.4,3-6.6,4.9-7.5c2.1-1.1,4.6-1.4,7.1-0.8l0,0
		c5.9,1.5,9.2,7.8,7,13.5c-0.7,1.9-1.6,4.5-3,6.8L-179.1,12.2z"/>
	<path class="st9" d="M-181.6,13c0,1.3,1,2.3,2.3,2.3s2.3-1,2.3-2.3s-1-2.3-2.3-2.3S-181.6,11.7-181.6,13z"/>
	<path class="st5" d="M-189.3,16c0,1.1,0.9,2,2,2s2-0.9,2-2"/>
	<g>
		<g>
			<path class="st30" d="M-167.7,73.9L-167.7,73.9c-0.5,0-1-0.4-1-1v-4.2l1.9-1.4v5.6C-166.8,73.4-167.2,73.9-167.7,73.9z"/>
			<path class="st30" d="M-165.8,74.8L-165.8,74.8c-0.5,0-1-0.4-1-0.9l-0.1-6.5h1.9l0.1,6.5C-164.8,74.3-165.2,74.8-165.8,74.8z"/>
			<path class="st30" d="M-163.9,73.9L-163.9,73.9c-0.5,0-1-0.4-1-1v-5.6h1.9v5.6C-163,73.4-163.4,73.9-163.9,73.9z"/>
			<path class="st30" d="M-162,71.2L-162,71.2c-0.5,0-1-0.4-1-1v-3h1.9v3C-161,70.8-161.5,71.2-162,71.2z"/>
		</g>
		<path class="st30" d="M-161,68.4v-1.9l-0.7-1.7l-5.1-0.1l-0.1,0.1c-1.2,1.1-1.8,2.7-1.8,4.3h-0.1L-161,68.4z"/>
	</g>
	<path class="st31" d="M-212.9,25.2l-0.5-3.7v-3c0-0.5-0.4-0.9-0.9-0.9l0,0c-0.5,0-0.9,0.4-0.9,0.9l0.2,3.3l-5.7,3.8l3.6,2
		L-212.9,25.2z"/>
	<path d="M-215.6,25.7h-5.2c-0.4,0-0.7-0.3-0.7-0.7v-1.3l0.7-4.3l-0.7-3.8v-0.9c0-0.4,0.3-0.7,0.7-0.7h5.2c0.4,0,0.7,0.3,0.7,0.7
		v0.9l-0.8,3.8l0.8,4.3V25C-214.9,25.3-215.2,25.7-215.6,25.7z"/>
	<g>
		<path class="st5" d="M-217.3,23.7c0,0.5-0.4,0.9-0.9,0.9s-0.9-0.4-0.9-0.9s0.4-0.9,0.9-0.9C-217.7,22.7-217.3,23.2-217.3,23.7z"/>
	</g>
	<rect x="-221.5" y="15.6" class="st32" width="6.6" height="8.1"/>
	<rect x="-182" y="6.4" width="2.3" height="8.5"/>
	<polygon class="st5" points="-219.2,21.2 -219.2,18 -216.8,19.6 	"/>
	<rect x="-192.3" y="-2" class="st4" width="18.5" height="6.7"/>
	<polygon class="st20" points="-183.5,3.7 -168.5,-1.5 -183.5,-7.7 -198.5,-1.5 	"/>
	<polygon class="st20" points="-172.1,6.4 -169.3,6.4 -170.2,3.7 -170.2,-1.5 -171.2,-1.5 -171.2,3.7 	"/>
	<path class="st33" d="M-252.8,76.1c0,1-0.8,1.8-1.8,1.8s-1.8-0.8-1.8-1.8s0.8-1.8,1.8-1.8S-252.8,75.1-252.8,76.1z"/>
</g>
<g id="DESIGNED_BY_FREEPIK">
</g>
<path class="st34" d="M659.6,88.2l1.8-5.6l-3.7-2.5c0-1.1,0-2.2-0.2-3.2l3.4-3.1l-2.6-5.2l-4.5,0.9c-0.7-0.8-1.5-1.7-2.4-2.3
	l0.2-4.7l-5.6-1.8l-2.6,4c-1.1,0-2.2,0.1-3.3,0.3l-3.1-3.3l-5.2,2.7l0.8,4.5c-0.8,0.7-1.6,1.5-2.2,2.4l-4.6-0.2l-1.8,5.6l3.8,2.6
	c0,1.1,0.1,2.2,0.3,3.2l-3.3,3.1l2.7,5.2L632,90c0.7,0.8,1.6,1.3,2.5,1.9l-0.1,4.4l5.6,1.8l2.5-3.6c1.1,0,2.1,0.1,3.2-0.1l3.1,3.4
	l5.2-2.6l-0.9-4.4c0.8-0.7,1.4-1.6,2-2.5L659.6,88.2z M640.6,86.5c-3.8-1.3-5.9-5.4-4.6-9.2c1.3-3.8,5.4-5.9,9.2-4.7
	c3.8,1.3,5.9,5.4,4.6,9.2C648.6,85.7,644.4,87.8,640.6,86.5z"/>
<path class="st34" d="M635,43l2.9-2.9l-1.5-2.7c0.4-0.7,0.7-1.3,0.9-2l3-0.8v-4.1l-3-0.9c-0.2-0.7-0.4-1.5-0.8-2.2l1.6-2.9l-2.9-2.9
	l-2.9,1.6c-0.7-0.4-1.4-0.6-2.1-0.8l-0.9-3h-4.1l-0.9,3c-0.7,0.2-1.5,0.5-2.1,0.8l-2.8-1.6l-2.9,2.9l1.6,2.8
	c-0.4,0.7-0.6,1.4-0.8,2.1l-3,0.9v4.1l3,0.9c0.2,0.7,0.6,1.3,0.9,2l-1.4,2.7l2.9,2.9l2.7-1.4c0.7,0.4,1.3,0.7,2,0.9l0.8,3.1h4.1
	l0.9-3c0.7-0.2,1.4-0.5,2-0.9L635,43z M623.8,36c-2-2-2-5.2,0-7.2s5.2-2,7.2,0s2,5.2,0,7.2S625.8,38,623.8,36z"/>
<path class="st35" d="M460.2,178.9c-5.7-7.4-15.5-3.1-17.9,2.7v0.1v-0.1c-2.4-5.8-12.1-10-17.9-2.7c-7.9,10.1-2.5,25.3,8.2,32.3
	c0.8,0.5,1.5,1,2.3,1.4c3.3,0.8,5.9-0.3,7.4-2.2c1.5,1.9,4.1,3,7.4,2.2c0.7-0.4,1.5-0.9,2.3-1.4C462.6,204.2,468,189.1,460.2,178.9z
	"/>
<path class="st36" d="M443.4,179.9l16-15.1C459.4,164.7,438.6,167.6,443.4,179.9z"/>
<path class="st3" d="M443.4,179.9l16-15.1C459.4,164.7,455.5,185.2,443.4,179.9z"/>
<polygon class="st3" points="443.4,183.3 440.6,183.3 440.6,171 439.3,166.9 442,166 443.4,170.2 "/>
<polygon class="st2" points="527.7,143.3 567.1,16.2 607.1,143.3 612.1,143.3 569.4,5.1 564.8,5.1 522.6,143.3 "/>
<polygon class="st2" points="542.9,143.3 582.4,16.2 622.4,143.3 627.4,143.3 584.7,5.1 580.1,5.1 537.9,143.3 "/>
<path class="st37" d="M500.3,128.3l20.8-39.1C521.2,89.2,487.1,112.1,500.3,128.3z"/>
<path class="st38" d="M500.3,128.3l20.8-39.1C521.2,89.2,521.2,130.3,500.3,128.3z"/>
<path class="st37" d="M500.1,148l22.6-21.8C522.7,126.2,494.7,134.2,500.1,148z"/>
<path class="st38" d="M500.1,148l22.7-21.7C522.7,126.3,513.7,153.9,500.1,148z"/>
<path class="st39" d="M499.8,164.4l12.8-12.3C512.6,152.2,496.7,156.6,499.8,164.4z"/>
<path class="st38" d="M499.8,164.4l12.8-12.3C512.6,152.2,507.4,167.8,499.8,164.4z"/>
<line class="st40" x1="500.4" y1="176" x2="500.4" y2="87.4"/>
<path class="st37" d="M500,93.5V47.2C500,47.2,479.7,85.1,500,93.5z"/>
<path class="st38" d="M500,93.5V47.2C500,47.2,520.4,85.1,500,93.5z"/>
<path class="st37" d="M500.3,118.6l-24.4-37C475.9,81.7,479.8,122.6,500.3,118.6z"/>
<path class="st38" d="M500.3,118.6l-24.4-37C475.9,81.7,512,101.2,500.3,118.6z"/>
<path class="st37" d="M500.4,141.6l-28.8-23.7C471.6,117.8,484.8,149.8,500.4,141.6z"/>
<path class="st38" d="M500.4,141.6l-28.8-23.7C471.6,117.8,505.6,124.7,500.4,141.6z"/>
<path class="st37" d="M500.7,156.7l-15.2-12.5C485.5,144.2,492.5,161.1,500.7,156.7z"/>
<path class="st38" d="M500.7,156.7l-15.2-12.5C485.5,144.2,503.4,147.8,500.7,156.7z"/>
<linearGradient id="SVGID_6_" gradientUnits="userSpaceOnUse" x1="476.8509" y1="232.25" x2="528.7009" y2="180.4" gradientTransform="matrix(1 0 0 -1 0 403)">
	<stop  offset="0.4121" style="stop-color:#EAEDF0"/>
	<stop  offset="1" style="stop-color:#C9D2DA"/>
</linearGradient>
<polygon class="st41" points="526.9,224.4 478.6,224.4 476.3,171.3 529.3,171.3 "/>
<polygon class="st3" points="477.7,204.2 478.6,224.4 526.9,224.4 527.8,204.2 "/>
<path class="st36" d="M467.2,210.8H491c5.1,0,9.2,4.2,9.2,9.4s-4.1,9.4-9.2,9.4h-23.8V210.8z"/>
<path class="st34" d="M498.8,225.3c-1.6,2.6-4.5,4.4-7.8,4.4h-23.8v-4.4H498.8z"/>
<path class="st5" d="M394.4,212.7h78.7c4,0,7.3,3.4,7.3,7.5s-3.3,7.5-7.3,7.5h-78.7V212.7z"/>
<rect x="394.4" y="212.7" class="st38" width="13.4" height="15"/>
<path class="st36" d="M393,225.8h80.1c3,0,5.4-2.5,5.4-5.6s-2.4-5.6-5.4-5.6H393v-3.9h80.1c5.1,0,9.2,4.2,9.2,9.4s-4.1,9.4-9.2,9.4
	H393V225.8z"/>
<path class="st34" d="M469.5,221.4h-75.1v-2.2h75.1c0.3,0,0.6,0.3,0.6,0.6v1.1C470.1,221.1,469.8,221.4,469.5,221.4z"/>
<path class="st34" d="M490.1,220.8c0-5.8-4.6-9.7-10-9.7h6.3c5.4,0,10,3.9,10,9.7s-4.2,8.9-9.5,8.9h-6.3
	C486,229.7,490.1,226.6,490.1,220.8z"/>
<polygon class="st34" points="445.2,224.1 449.1,221.6 452.9,224.1 452.9,219.1 445.2,219.1 "/>
<path d="M519,238.6V98.2c0-9.1,7.4-16.4,16.4-16.4h216.1c9.1,0,16.4,7.4,16.4,16.4v140.4L519,238.6L519,238.6z"/>
<path class="st37" d="M751.5,83.1c8.3,0,15.1,6.8,15.1,15.1v139H520.3v-139c0-8.3,6.8-15.1,15.1-15.1L751.5,83.1 M751.5,80.5H535.4
	c-9.8,0-17.8,8-17.8,17.8V240h251.6V98.2C769.3,88.4,761.3,80.5,751.5,80.5L751.5,80.5z"/>
<path d="M682.5,76.8l-0.4,3.7h-11.3l0,0c0.3-1.4,1.7-2.2,3.1-2l1.4,0.2c0.9,0,3.8-1,3.5-1.9L682.5,76.8z"/>
<path class="st34" d="M706.2,78.7l-16.8-12.3l-6.9,13l-5.1-2.9l7.9-17.3c1.1-2.4,3.9-3.3,6.2-2.1l18.6,10L706.2,78.7z"/>
<path class="st3" d="M725.4,72.4v1.4c0,4.4-3.6,8-8,8l0,0l-21.1-0.3h-28.9l-0.4-3.6l16.8-2.3l3.8-0.6l18.9-2.6H725.4z"/>
<path class="st38" d="M706.2,40.7h12.9c3.4,0,6.5,1.8,8.1,4.7l5,11.1c0.8,1.7,1.2,3.6,1.2,5.5v16.7h-6V61.6l-2-5.7v18.3h-19.8
	l-1.4-23.4l-9.3,8.6c-2,2.1-5.5,1.5-6.8-1l-8.2-15.8l4.1-2.5l7.2,11.7l8.3-8.4C701.3,41.7,703.7,40.7,706.2,40.7z"/>
<path class="st42" d="M703.2,26c-0.1-3.6,3.7-7.9,8.8-8c3.1,0,6,1.7,7.7,4.4l0.2,0.3c1.3,2.2,1.7,4.8,0.9,7.2l-2.6,6.4l-0.2,4.3
	l-0.1,0.1c-2.1,1.9-5.3,1.9-7.3-0.1l0,0l0.2-4.6h-3.4c-2.4,0-4.3-2-4.3-4.4l0,0v-2L703.2,26z"/>
<path d="M716.6,27.6l-2.3-5l-3.3,1.1c-2.5,0.8-5.2,0.6-7.5-0.6l0,0c0-3.3,2.9-6.4,4.7-7.3c2-1,4.5-1.4,6.8-0.8l0,0
	c5.7,1.4,8.9,7.5,6.8,13.1c-0.7,1.8-1.6,4.3-2.9,6.6L716.6,27.6z"/>
<path class="st42" d="M714.3,28.4c0,1.2,1,2.2,2.2,2.2s2.2-1,2.2-2.2s-1-2.2-2.2-2.2C715.2,26.2,714.3,27.2,714.3,28.4z"/>
<path class="st5" d="M706.8,31.4c0,1.1,0.9,1.9,1.9,1.9c1.1,0,1.9-0.9,1.9-1.9"/>
<g>
	<g>
		<path class="st43" d="M727.7,87.4L727.7,87.4c-0.5,0-0.9-0.4-0.9-0.9v-4.1l1.9-1.4v5.4C728.6,87,728.2,87.4,727.7,87.4z"/>
		<path class="st43" d="M729.6,88.3L729.6,88.3c-0.5,0-0.9-0.4-0.9-0.9l-0.1-6.3h1.9l0.1,6.3C730.5,87.9,730.1,88.3,729.6,88.3z"/>
		<path class="st43" d="M731.4,87.4L731.4,87.4c-0.5,0-0.9-0.4-0.9-0.9v-5.4h1.9v5.4C732.3,87,731.9,87.4,731.4,87.4z"/>
		<path class="st43" d="M733.3,84.9L733.3,84.9c-0.5,0-0.9-0.4-0.9-0.9v-2.9h1.9V84C734.2,84.4,733.8,84.9,733.3,84.9z"/>
	</g>
	<path class="st43" d="M734.2,82.2v-1.8l-0.7-1.6l-4.9-0.1l-0.1,0.1c-1.2,1.1-1.7,2.6-1.7,4.2h-0.1L734.2,82.2z"/>
</g>
<path class="st44" d="M683.9,40.2l-0.5-3.6v-2.9c0-0.5-0.4-0.8-0.8-0.8l0,0c-0.5,0-0.9,0.4-0.8,0.9L682,37l-5.5,3.7l3.5,1.9
	L683.9,40.2z"/>
<path d="M681.3,40.7h-5.1c-0.4,0-0.7-0.3-0.7-0.7v-1.2l0.7-4.1l-0.7-3.7v-0.8c0-0.4,0.3-0.7,0.7-0.7h5.1c0.4,0,0.7,0.3,0.7,0.7V31
	l-0.8,3.7l0.8,4.2V40C682,40.4,681.7,40.7,681.3,40.7z"/>
<g>
	<path class="st5" d="M679.7,38.8c0,0.5-0.4,0.9-0.9,0.9s-0.9-0.4-0.9-0.9s0.4-0.9,0.9-0.9C679.3,37.9,679.7,38.3,679.7,38.8z"/>
</g>
<rect x="675.5" y="31" class="st45" width="6.4" height="7.8"/>
<rect x="713.8" y="22" width="2.2" height="8.2"/>
<polygon class="st5" points="677.8,36.4 677.8,33.3 680.2,34.9 "/>
<rect x="703.8" y="13.9" class="st46" width="17.9" height="6.5"/>
<polygon class="st3" points="712.4,19.4 727,14.4 712.4,8.4 697.9,14.4 "/>
<polygon class="st47" points="723.4,22 726.2,22 725.3,19.4 725.3,14.4 724.3,14.4 724.3,19.4 "/>
<path class="st48" d="M645.2,89.6c0,1-0.8,1.8-1.8,1.8s-1.8-0.8-1.8-1.8s0.8-1.8,1.8-1.8S645.2,88.6,645.2,89.6z"/>
<path d="M667.6,81.7l-3.7,1.9l-0.4-11.5l0,0c1.4,0.3,2.3,1.6,2.2,3.1l-0.2,1.4c0,1,1,1.6,1.9,1.2l0,0L667.6,81.7z"/>
<rect x="529.3" y="94.3" class="st5" width="229.6" height="133"/>
<path class="st2" d="M529.3,227.4v-38.1c0,0,16.1-36.1,33.2-31.8s29,5.9,32.4-7c2.9-11.2,87-43.1,130.3-46c10.8-0.7,20,7.8,20,18.6
	v76.2c0,28.1-38.2,28.1-55.8,28.1H529.3z"/>
<path class="st5" d="M663,208h-96.5c-4.9,0-8.8-3.9-8.8-8.8v-73.1h114.1v73.1C671.8,204.1,667.9,208,663,208z"/>
<path class="st2" d="M659.4,167.3h-90.2c-1,0-1.8-0.8-1.8-1.8v-4.2c0-1,0.8-1.8,1.8-1.8h90.2c1,0,1.8,0.8,1.8,1.8v4.2
	C661.2,166.5,660.4,167.3,659.4,167.3z"/>
<path class="st3" d="M566.5,111.6H663c4.9,0,8.8,3.9,8.8,8.8v5.7H557.7v-5.7C557.7,115.5,561.6,111.6,566.5,111.6z"/>
<g>
	<circle class="st5" cx="566.6" cy="118.8" r="2"/>
	<circle class="st5" cx="573.3" cy="118.8" r="2"/>
	<circle class="st5" cx="579.8" cy="118.8" r="2"/>
</g>
<circle class="st5" cx="661.7" cy="118.8" r="3.6"/>
<g>
	<path class="st47" d="M663.1,120.7l-1.4-1.6l-1.4,1.6h-0.4l1.6-1.8l-1.5-1.7h0.4l1.3,1.5l1.3-1.5h0.4l-1.5,1.7l1.6,1.8H663.1z"/>
</g>
<path class="st6" d="M659.4,156.6h-90.2c-1,0-1.8-0.8-1.8-1.8v-21.7c0-1,0.8-1.8,1.8-1.8h90.2c1,0,1.8,0.8,1.8,1.8v21.7
	C661.2,155.8,660.4,156.6,659.4,156.6z"/>
<path class="st2" d="M615.3,188.5h-16.9c-1,0-1.8-0.8-1.8-1.8v-14.9c0-1,0.8-1.8,1.8-1.8h16.9c1,0,1.8,0.8,1.8,1.8v14.9
	C617.1,187.7,616.3,188.5,615.3,188.5z"/>
<path class="st2" d="M592,188.5h-22.8c-1,0-1.8-0.8-1.8-1.8v-14.9c0-1,0.8-1.8,1.8-1.8H592c1,0,1.8,0.8,1.8,1.8v14.9
	C593.8,187.7,593,188.5,592,188.5z"/>
<path class="st2" d="M659.4,199h-37.6c-1,0-1.8-0.8-1.8-1.8v-25.3c0-1,0.8-1.8,1.8-1.8h37.6c1,0,1.8,0.8,1.8,1.8v25.3
	C661.2,198.2,660.4,199,659.4,199z"/>
<circle class="st5" cx="579.7" cy="144.6" r="7"/>
<path class="st5" d="M651.2,151.6h-14.5c-0.8,0-1.4-0.6-1.4-1.4V140c0-0.8,0.6-1.4,1.4-1.4h14.5c0.8,0,1.4,0.6,1.4,1.4v10.2
	C652.6,151,652,151.6,651.2,151.6z"/>
<path class="st5" d="M605.7,140h-14c-0.5,0-1-0.4-1-1l0,0c0-0.5,0.4-1,1-1h14c0.5,0,1,0.4,1,1l0,0C606.6,139.6,606.2,140,605.7,140z
	"/>
<path class="st5" d="M600.6,143.9h-8.9c-0.5,0-1-0.4-1-1l0,0c0-0.5,0.4-1,1-1h8.9c0.5,0,1,0.4,1,1l0,0
	C601.6,143.5,601.1,143.9,600.6,143.9z"/>
<path class="st6" d="M648.4,148.1h-8.9c-0.5,0-1-0.4-1-1l0,0c0-0.5,0.4-1,1-1h8.9c0.5,0,1,0.4,1,1l0,0
	C649.4,147.7,649,148.1,648.4,148.1z"/>
<path class="st5" d="M600.6,152.6h-8.9c-0.5,0-1-0.4-1-1l0,0c0-0.5,0.4-1,1-1h8.9c0.5,0,1,0.4,1,1l0,0
	C601.6,152.2,601.1,152.6,600.6,152.6z"/>
<path class="st5" d="M624,163h-29.6c-0.5,0-1-0.4-1-1l0,0c0-0.5,0.4-1,1-1H624c0.5,0,1,0.4,1,1l0,0C625,162.5,624.6,163,624,163z"/>
<path class="st5" d="M657.1,163h-21.8c-0.5,0-1-0.4-1-1l0,0c0-0.5,0.4-1,1-1h21.8c0.5,0,1,0.4,1,1l0,0
	C658.1,162.5,657.7,163,657.1,163z"/>
<path class="st5" d="M657.1,166h-28.5c-0.5,0-1-0.4-1-1l0,0c0-0.5,0.4-1,1-1h28.5c0.5,0,1,0.4,1,1l0,0
	C658.1,165.6,657.7,166,657.1,166z"/>
<path class="st5" d="M619.1,166h-46.2c-0.5,0-1-0.4-1-1l0,0c0-0.5,0.4-1,1-1h46.2c0.5,0,1,0.4,1,1l0,0
	C620,165.6,619.6,166,619.1,166z"/>
<path class="st5" d="M606.5,186.3h-7.6c-0.5,0-1-0.4-1-1l0,0c0-0.5,0.4-1,1-1h7.6V186.3z"/>
<path class="st34" d="M606.5,184.4h7c0.5,0,1,0.4,1,1l0,0c0,0.5-0.4,1-1,1h-7V184.4z"/>
<path class="st5" d="M586.8,163h-13.9c-0.5,0-1-0.4-1-1l0,0c0-0.5,0.4-1,1-1h13.9c0.5,0,1,0.4,1,1l0,0
	C587.8,162.5,587.3,163,586.8,163z"/>
<path class="st2" d="M615.3,199.1h-46.1c-1,0-1.8-0.8-1.8-1.8v-4.2c0-1,0.8-1.8,1.8-1.8h46.1c1,0,1.8,0.8,1.8,1.8v4.2
	C617.1,198.3,616.3,199.1,615.3,199.1z"/>
<path class="st5" d="M657.1,180.3h-33.2c-1,0-1.8-0.8-1.8-1.8v-4.2c0-1,0.8-1.8,1.8-1.8h33.2c1,0,1.8,0.8,1.8,1.8v4.2
	C658.9,179.5,658.1,180.3,657.1,180.3z"/>
<path class="st5" d="M600.2,194.7h-8.9c-0.5,0-1-0.4-1-1l0,0c0-0.5,0.4-1,1-1h8.9c0.5,0,1,0.4,1,1l0,0
	C601.2,194.3,600.8,194.7,600.2,194.7z"/>
<path class="st5" d="M582.3,197.8h-9.4c-0.5,0-1-0.4-1-1l0,0c0-0.5,0.4-1,1-1h9.4c0.5,0,1,0.4,1,1l0,0
	C583.3,197.4,582.8,197.8,582.3,197.8z"/>
<path class="st5" d="M591.1,197.8h-5.7c-0.5,0-1-0.4-1-1l0,0c0-0.5,0.4-1,1-1h5.7c0.5,0,1,0.4,1,1l0,0
	C592,197.4,591.6,197.8,591.1,197.8z"/>
<path class="st5" d="M601,197.8h-5.8c-0.5,0-1-0.4-1-1l0,0c0-0.5,0.4-1,1-1h5.7c0.5,0,1,0.4,1,1l0,0
	C602,197.4,601.5,197.8,601,197.8z"/>
<path class="st5" d="M586.8,194.7h-13.9c-0.5,0-1-0.4-1-1l0,0c0-0.5,0.4-1,1-1h13.9c0.5,0,1,0.4,1,1l0,0
	C587.8,194.3,587.3,194.7,586.8,194.7z"/>
<path class="st5" d="M602.5,148.5h-10.9c-0.5,0-1-0.4-1-1l0,0c0-0.5,0.4-1,1-1h10.9c0.5,0,1,0.4,1,1l0,0
	C603.5,148.1,603,148.5,602.5,148.5z"/>
<path class="st5" d="M615.6,148.5h-10.3c-0.5,0-1-0.4-1-1l0,0c0-0.5,0.4-1,1-1h10.3c0.5,0,1,0.4,1,1l0,0
	C616.6,148.1,616.1,148.5,615.6,148.5z"/>
<path class="st5" d="M610.3,143.9h-6c-0.5,0-1-0.4-1-1l0,0c0-0.5,0.4-1,1-1h6c0.5,0,1,0.4,1,1l0,0
	C611.3,143.5,610.8,143.9,610.3,143.9z"/>
<path class="st6" d="M647,143.9h-6c-0.5,0-1-0.4-1-1l0,0c0-0.5,0.4-1,1-1h6c0.5,0,1,0.4,1,1l0,0C647.9,143.5,647.5,143.9,647,143.9z
	"/>
<path class="st38" d="M653.1,178.9h-26.3c-0.5,0-1-0.4-1-1l0,0c0-0.5,0.4-1,1-1h26.3c0.5,0,1,0.4,1,1l0,0
	C654.1,178.4,653.6,178.9,653.1,178.9z"/>
<path class="st38" d="M647.3,175.9h-14.6c-0.5,0-1-0.4-1-1l0,0c0-0.5,0.4-1,1-1h14.6c0.5,0,1,0.4,1,1l0,0
	C648.2,175.5,647.8,175.9,647.3,175.9z"/>
<path class="st5" d="M623.1,140h-14c-0.5,0-1-0.4-1-1l0,0c0-0.5,0.4-1,1-1h14c0.5,0,1,0.4,1,1l0,0C624.1,139.6,623.7,140,623.1,140z
	"/>
<path class="st3" d="M593.8,171.9v8.9l-3.8-4.1c-0.5-0.6-1.4-0.6-2,0l-8.8,9.2l-4.1-4.1c-0.5-0.5-1.4-0.5-1.9,0l-5.5,5.8
	c-0.1-0.2-0.2-0.5-0.2-0.8v-14.9c0-1,0.8-1.8,1.8-1.8h22.8C593,170.2,593.8,170.9,593.8,171.9z"/>
<circle class="st5" cx="606.7" cy="177.6" r="5.1"/>
<circle class="st5" cx="639.9" cy="189.5" r="5.1"/>
<circle class="st5" cx="573.7" cy="175" r="2.5"/>
<g>
	<g>
		<circle class="st6" cx="579.8" cy="141.8" r="1.5"/>
	</g>
	<path class="st6" d="M583,147.8h-6.5v-0.1c0-1.8,1.4-3.2,3.2-3.2l0,0c1.8,0,3.2,1.4,3.2,3.2L583,147.8L583,147.8z"/>
</g>
<path class="st3" d="M722.4,199.6H695c-3.3,0-6.1-2.7-6.1-6.1v-67.2c0-3.3,2.7-6.1,6.1-6.1h27.4c3.3,0,6.1,2.7,6.1,6.1v67.2
	C728.4,196.9,725.7,199.6,722.4,199.6z"/>
<path class="st5" d="M726.4,126.4v67.2c0,2.2-1.8,4-4,4H695c-2.2,0-4-1.8-4-4v-67.2c0-0.1,0-0.1,0-0.2l0,0c0.1-2.1,1.9-3.8,4-3.8
	h27.4c2.1,0,3.9,1.7,4,3.8l0,0C726.4,126.3,726.4,126.3,726.4,126.4z"/>
<path class="st3" d="M716,125.4h-14.7c-1.3,0-2.4-1.1-2.4-2.4v-1.5h19.5v1.5C718.4,124.3,717.3,125.4,716,125.4z"/>
<g>
	<path class="st17" d="M720,167.1h-22.7c-1.9,0-3.4-1.5-3.4-3.4v-5.5c0-1.9,1.5-3.4,3.4-3.4H720c1.9,0,3.4,1.5,3.4,3.4v5.5
		C723.4,165.6,721.9,167.1,720,167.1z"/>
	<path class="st5" d="M714.6,159H703c-0.4,0-0.8-0.4-0.8-0.8l0,0c0-0.4,0.4-0.8,0.8-0.8h11.6c0.4,0,0.8,0.4,0.8,0.8l0,0
		C715.4,158.6,715.1,159,714.6,159z"/>
	<path class="st5" d="M717.7,161.8H700c-0.4,0-0.8-0.4-0.8-0.8l0,0c0-0.4,0.4-0.8,0.8-0.8h17.7c0.4,0,0.8,0.4,0.8,0.8l0,0
		C718.5,161.4,718.1,161.8,717.7,161.8z"/>
	<path class="st5" d="M717.7,164.6H700c-0.4,0-0.8-0.4-0.8-0.8l0,0c0-0.4,0.4-0.8,0.8-0.8h17.7c0.4,0,0.8,0.4,0.8,0.8l0,0
		C718.5,164.3,718.1,164.6,717.7,164.6z"/>
</g>
<g>
	<path class="st17" d="M720,183h-22.7c-1.9,0-3.4-1.5-3.4-3.4v-5.5c0-1.9,1.5-3.4,3.4-3.4H720c1.9,0,3.4,1.5,3.4,3.4v5.5
		C723.4,181.5,721.9,183,720,183z"/>
	<path class="st5" d="M714.6,174.9H703c-0.4,0-0.8-0.4-0.8-0.8l0,0c0-0.4,0.4-0.8,0.8-0.8h11.6c0.4,0,0.8,0.4,0.8,0.8l0,0
		C715.4,174.5,715.1,174.9,714.6,174.9z"/>
	<path class="st5" d="M717.7,177.7H700c-0.4,0-0.8-0.4-0.8-0.8l0,0c0-0.4,0.4-0.8,0.8-0.8h17.7c0.4,0,0.8,0.4,0.8,0.8l0,0
		C718.5,177.3,718.1,177.7,717.7,177.7z"/>
	<path class="st5" d="M717.7,180.5H700c-0.4,0-0.8-0.4-0.8-0.8l0,0c0-0.4,0.4-0.8,0.8-0.8h17.7c0.4,0,0.8,0.4,0.8,0.8l0,0
		C718.5,180.2,718.1,180.5,717.7,180.5z"/>
</g>
<path class="st17" d="M720.8,194.3h-24.1c-1.5,0-2.7-1.2-2.7-2.7v-2.3c0-1.5,1.2-2.7,2.7-2.7h24.1c1.5,0,2.7,1.2,2.7,2.7v2.3
	C723.4,193.1,722.2,194.3,720.8,194.3z"/>
<path class="st5" d="M714.5,191.3h-11.6c-0.4,0-0.8-0.4-0.8-0.8l0,0c0-0.4,0.4-0.8,0.8-0.8h11.6c0.4,0,0.8,0.4,0.8,0.8l0,0
	C715.3,190.9,714.9,191.3,714.5,191.3z"/>
<g>
	<path class="st17" d="M718.1,150.5h-19.2c-1.1,0-2-0.9-2-2v-16.9c0-1.1,0.9-2,2-2h19.2c1.1,0,2,0.9,2,2v16.9
		C720.1,149.6,719.2,150.5,718.1,150.5z"/>
	<path class="st5" d="M708.1,148h-8.6c-0.6,0-1.1-0.5-1.1-1.1l0,0c0-0.6,0.5-1.1,1.1-1.1h8.6V148z"/>
	<path class="st6" d="M708.1,145.8h8c0.6,0,1.1,0.5,1.1,1.1l0,0c0,0.6-0.5,1.1-1.1,1.1h-8V145.8z"/>
	<circle class="st45" cx="708.3" cy="138.1" r="5.8"/>
</g>
<polygon class="st34" points="562.8,74 543.8,74 545.4,68.7 562.8,68.7 "/>
<polygon class="st34" points="569,52.8 550.2,52.8 552.1,46.6 569,46.6 "/>
<polygon class="st34" points="576.1,30.7 557,30.7 558.6,25.4 576.1,25.4 "/>
<circle class="st5" cx="708.1" cy="138" r="6"/>
<path class="st37" d="M376,328.7c8.3,0,15.1,6.8,15.1,15.1v139H144.9v-139c0-8.3,6.8-15.1,15.1-15.1H376 M376,326.1H159.9
	c-9.8,0-17.8,8-17.8,17.8v141.7h251.6V343.8C393.9,334,385.9,326.1,376,326.1L376,326.1z"/>
<path class="st3" d="M384.1,493H151.9c-9.5,0-18.2-5-23.1-13.1l0,0h278.6l0,0C402.5,488,393.6,493,384.1,493z"/>
</svg>
